<?xml version="1.0" encoding="UTF-8"?>
<svg id="Layer_1" xmlns="http://www.w3.org/2000/svg" xmlns:xlink="http://www.w3.org/1999/xlink" version="1.1" viewBox="0 0 1080 562.3">
  <!-- Generator: Adobe Illustrator 29.0.1, SVG Export Plug-In . SVG Version: 2.1.0 Build 192)  -->
  <defs>
    <style>
      .st0 {
        fill: none;
      }

      .st1 {
        fill: #5481f1;
      }

      .st2 {
        clip-path: url(#clippath-1);
      }

      .st3 {
        clip-path: url(#clippath-3);
      }

      .st4 {
        clip-path: url(#clippath-4);
      }

      .st5 {
        clip-path: url(#clippath-2);
      }

      .st6 {
        clip-path: url(#clippath-7);
      }

      .st7 {
        clip-path: url(#clippath-6);
      }

      .st8 {
        clip-path: url(#clippath-9);
      }

      .st9 {
        clip-path: url(#clippath-8);
      }

      .st10 {
        clip-path: url(#clippath-5);
      }

      .st11 {
        fill: #fff;
      }

      .st12 {
        clip-path: url(#clippath);
      }
    </style>
    <clipPath id="clippath">
      <rect class="st0" x="210.7" y="206.7" width="144" height="219.9"/>
    </clipPath>
    <clipPath id="clippath-1">
      <polygon class="st0" points="326.2 206.8 211.9 401.6 227.3 426.3 354 206.8 326.2 206.8"/>
    </clipPath>
    <clipPath id="clippath-2">
      <rect class="st0" x="69.3" y="150.7" width="368" height="202.3"/>
    </clipPath>
    <clipPath id="clippath-3">
      <path class="st0" d="M186.2,336.7v.5c0,0,0-.5,0-.5h0ZM69.7,151.2l114.4,200.9h3.1l98.9-173.1h0c0,0,135.2-.8,135.2-.8l15.5-25.6-166.1-1.4-84.3,150.5-72.8-123.5h46.7l14.6-27h-105.1Z"/>
    </clipPath>
    <clipPath id="clippath-4">
      <rect class="st0" x="146.7" y="123" width="81.3" height="81"/>
    </clipPath>
    <clipPath id="clippath-5">
      <path class="st0" d="M227.3,163.6c0,22.2-18,40.2-40.2,40.2v-12.4,12.4c-22.2,0-40.2-18-40.2-40.2h12.4-12.4c0-22.2,18-40.2,40.2-40.2v12.4-12.4c22.2,0,40.2,18,40.2,40.2h-12.4,12.4M202.6,163.6c0-8.5-6.9-15.5-15.5-15.5s-15.5,6.9-15.5,15.5,6.9,15.5,15.5,15.5,15.5-6.9,15.5-15.5Z"/>
    </clipPath>
    <clipPath id="clippath-6">
      <rect class="st0" x="170" y="123" width="320.2" height="354.4"/>
    </clipPath>
    <clipPath id="clippath-7">
      <path class="st0" d="M465.3,163.6c0-8.5-6.9-15.5-15.5-15.5v-12.4,12.4c-8.5,0-15.5,6.9-15.5,15.5h-12.4,12.4c0,8.5,6.9,15.5,15.5,15.5v12.4-12.4c8.5,0,15.5-6.9,15.5-15.5h12.4-12.4M490,163.6c0,22.2-18,40.2-40.2,40.2s-40.2-18-40.2-40.2,18-40.2,40.2-40.2,40.2,18,40.2,40.2ZM210.3,477.3c-22.2,0-40.2-18-40.2-40.2h12.4-12.4c0-22.2,18-40.2,40.2-40.2v12.4-12.4c22.2,0,40.2,18,40.2,40.2h-12.4,12.4c0,22.2-18,40.2-40.2,40.2v-12.4,12.4M210.3,452.6c8.5,0,15.5-6.9,15.5-15.5s-6.9-15.5-15.5-15.5-15.5,6.9-15.5,15.5,6.9,15.5,15.5,15.5Z"/>
    </clipPath>
    <clipPath id="clippath-8">
      <rect class="st0" x="572" y="245.1" width="88" height="86"/>
    </clipPath>
    <clipPath id="clippath-9">
      <rect class="st0" x="868" y="245.1" width="77.3" height="86"/>
    </clipPath>
  </defs>
  <g class="st12">
    <g class="st2">
      <path class="st1" d="M54.2,107.9h450.9v384.8H54.2V107.9Z"/>
    </g>
  </g>
  <g class="st5">
    <g class="st3">
      <path class="st1" d="M54.2,107.9h450.9v384.8H54.2V107.9Z"/>
    </g>
  </g>
  <g class="st4">
    <g class="st10">
      <path class="st1" d="M54.2,107.9h450.9v384.8H54.2V107.9Z"/>
    </g>
  </g>
  <g class="st7">
    <g class="st6">
      <path class="st1" d="M54.2,107.9h450.9v384.8H54.2V107.9Z"/>
    </g>
  </g>
  <path class="st11" d="M393.6,329.7l-28.8-83.3h16.5l22.7,69h-3.2l22.6-69h16.6l-28.8,83.3h-17.5Z"/>
  <path class="st11" d="M437.4,329.7l28.6-83.3h19.6l28.6,83.3h-16.5l-5.9-17.8h-32.1l-6,17.8h-16.4,0ZM464.2,298.4h23.3l-13.7-41.4h4.2l-13.8,41.4Z"/>
  <path class="st11" d="M532.7,329.7v-69.9h-21.5v-13.4h57.9v13.4h-21.2v69.9h-15.3Z"/>
  <g class="st9">
    <path class="st11" d="M615.9,331c-6.2,0-11.9-1.1-17.1-3.2-5.2-2.2-9.8-5.2-13.8-9.1-3.9-3.9-7-8.4-9.2-13.7-2.2-5.3-3.3-10.9-3.3-17.1s1.1-11.8,3.3-17.1c2.2-5.3,5.3-9.8,9.2-13.6,3.9-3.8,8.5-6.8,13.8-9,5.3-2.2,11-3.2,17.2-3.2s11.9,1.1,17.2,3.2c5.3,2.2,9.9,5.2,13.8,9.1,3.9,3.9,7,8.4,9.2,13.6,2.2,5.2,3.3,10.9,3.3,17s-1.1,11.8-3.3,17.1c-2.2,5.3-5.3,9.8-9.2,13.7-3.9,3.9-8.5,6.9-13.8,9.1-5.2,2.2-10.9,3.2-17.1,3.2h0ZM615.9,317.1c4,0,7.7-.7,11.1-2.2,3.4-1.4,6.4-3.5,9-6.1,2.6-2.6,4.6-5.7,5.9-9.3,1.4-3.6,2.1-7.4,2.1-11.6s-.7-8-2.1-11.6c-1.4-3.5-3.4-6.6-5.9-9.3-2.6-2.6-5.5-4.7-9-6.1-3.4-1.4-7.1-2.1-11.1-2.1s-7.7.7-11.1,2.1c-3.4,1.4-6.4,3.4-9,6.1-2.6,2.6-4.6,5.7-5.9,9.3-1.4,3.5-2.1,7.4-2.1,11.6s.7,8,2.1,11.6c1.4,3.6,3.4,6.7,5.9,9.3,2.6,2.6,5.5,4.6,9,6.1,3.4,1.5,7.1,2.2,11.1,2.2Z"/>
  </g>
  <path class="st11" d="M672.7,329.7v-83.3h31c5.6,0,10.6,1,15,3.1s7.8,5,10.2,8.9c2.4,3.9,3.7,8.7,3.7,14.4s-1.4,10.5-4.1,14.6c-2.7,4.1-6.4,7.1-11,9l19.1,33.3h-17.2l-20.5-36.6,9.9,5.8h-20.8v30.7h-15.3,0ZM688,285.5h15.9c2.8,0,5.1-.5,7.1-1.6,2-1.1,3.6-2.6,4.7-4.5s1.7-4.2,1.7-6.7-.5-4.9-1.7-6.8c-1.1-1.9-2.7-3.4-4.7-4.5-2-1.1-4.4-1.6-7.1-1.6h-15.9v25.7h0Z"/>
  <path class="st11" d="M759,329.7v-69.9h-21.5v-13.4h57.9v13.4h-21.2v69.9h-15.3Z"/>
  <path class="st11" d="M804.5,329.7v-83.3h55.3v13.4h-40v21.4h37.8v13.5h-37.8v21.6h40v13.4h-55.3Z"/>
  <g class="st8">
    <path class="st11" d="M909.9,331c-6,0-11.5-1.1-16.5-3.2-5-2.2-9.4-5.2-13.2-9.1-3.7-3.9-6.6-8.4-8.7-13.6s-3.2-10.9-3.2-17.1,1-11.9,3.1-17.2c2.1-5.3,5-9.8,8.7-13.6,3.7-3.8,8.1-6.8,13.2-8.9,5-2.1,10.5-3.2,16.5-3.2s11.3,1,16,3c4.7,2,8.7,4.7,12,8,3.3,3.3,5.6,6.9,7,10.9l-13.6,6.5c-1.6-4.3-4.2-7.7-7.9-10.4-3.7-2.7-8.2-4.1-13.5-4.1s-9.8,1.2-13.8,3.7c-4,2.4-7.1,5.8-9.2,10.2-2.2,4.3-3.3,9.4-3.3,15.2s1.1,10.9,3.3,15.3c2.2,4.4,5.3,7.8,9.2,10.2,4,2.4,8.6,3.7,13.8,3.7s9.8-1.4,13.5-4.1c3.7-2.7,6.3-6.2,7.9-10.3l13.6,6.4c-1.4,4-3.8,7.6-7,10.9s-7.3,6-12,8c-4.7,2-10.1,3-16,3h0Z"/>
  </g>
  <path class="st11" d="M957,329.7v-83.3h15.3v36.3h35.3v-36.3h15.3v83.3h-15.3v-33.5h-35.3v33.5h-15.3Z"/>
</svg>